<svg width="33" height="33" viewBox="0 0 33 33" fill="none" xmlns="http://www.w3.org/2000/svg">
<path d="M3.67273 26.0381V9.68701H29.5619V26.0381C29.5619 27.5369 28.3356 28.7633 26.8367 28.7633H6.39791C4.89906 28.7633 3.67273 27.5369 3.67273 26.0381Z" fill="#CFD8DC"/>
<path d="M29.5619 6.96175V11.0495H3.67273V6.96175C3.67273 5.4629 4.89906 4.23657 6.39791 4.23657H26.8367C28.3356 4.23657 29.5619 5.4629 29.5619 6.96175Z" fill="#F44336"/>
<path d="M22.7486 9.00573C23.8774 9.00573 24.7925 8.09066 24.7925 6.96185C24.7925 5.83305 23.8774 4.91797 22.7486 4.91797C21.6198 4.91797 20.7047 5.83305 20.7047 6.96185C20.7047 8.09066 21.6198 9.00573 22.7486 9.00573Z" fill="#B71C1C"/>
<path d="M10.4855 9.00573C11.6143 9.00573 12.5294 8.09066 12.5294 6.96185C12.5294 5.83305 11.6143 4.91797 10.4855 4.91797C9.35673 4.91797 8.44165 5.83305 8.44165 6.96185C8.44165 8.09066 9.35673 9.00573 10.4855 9.00573Z" fill="#B71C1C"/>
<path d="M22.7487 2.19287C21.9993 2.19287 21.3861 2.80604 21.3861 3.55546V6.96193C21.3861 7.71136 21.9993 8.32452 22.7487 8.32452C23.4981 8.32452 24.1113 7.71136 24.1113 6.96193V3.55546C24.1113 2.80604 23.4981 2.19287 22.7487 2.19287ZM10.4854 2.19287C9.73597 2.19287 9.1228 2.80604 9.1228 3.55546V6.96193C9.1228 7.71136 9.73597 8.32452 10.4854 8.32452C11.2348 8.32452 11.848 7.71136 11.848 6.96193V3.55546C11.848 2.80604 11.2348 2.19287 10.4854 2.19287Z" fill="#B0BEC5"/>
<path d="M9.1228 13.7749H11.848V16.5001H9.1228V13.7749ZM13.2106 13.7749H15.9357V16.5001H13.2106V13.7749ZM17.2983 13.7749H20.0235V16.5001H17.2983V13.7749ZM21.3861 13.7749H24.1113V16.5001H21.3861V13.7749ZM9.1228 17.8627H11.848V20.5878H9.1228V17.8627ZM13.2106 17.8627H15.9357V20.5878H13.2106V17.8627ZM17.2983 17.8627H20.0235V20.5878H17.2983V17.8627ZM21.3861 17.8627H24.1113V20.5878H21.3861V17.8627ZM9.1228 21.9504H11.848V24.6756H9.1228V21.9504ZM13.2106 21.9504H15.9357V24.6756H13.2106V21.9504ZM17.2983 21.9504H20.0235V24.6756H17.2983V21.9504ZM21.3861 21.9504H24.1113V24.6756H21.3861V21.9504Z" fill="#90A4AE"/>
</svg>
