<svg width="24" height="23" viewBox="0 0 24 23" fill="none" xmlns="http://www.w3.org/2000/svg">
<path d="M11.833 17.8269C15.4434 17.8269 18.3703 14.9001 18.3703 11.2897C18.3703 7.67926 15.4434 4.75244 11.833 4.75244C8.2226 4.75244 5.29578 7.67926 5.29578 11.2897C5.29578 14.9001 8.2226 17.8269 11.833 17.8269Z" stroke="#666666" stroke-width="1.70897"/>
<path d="M6.19691 3.01172C5.56336 3.1814 4.98566 3.51489 4.52188 3.97867C4.05811 4.44244 3.72461 5.02015 3.55493 5.6537M17.469 3.01172C18.1025 3.1814 18.6802 3.51489 19.144 3.97867C19.6078 4.44244 19.9413 5.02015 20.111 5.6537M11.8329 7.55417V11.0563C11.8329 11.1851 11.9375 11.2897 12.0664 11.2897H14.6346" stroke="#666666" stroke-width="1.70897" stroke-linecap="round"/>
</svg>
