<svg width="37" height="37" viewBox="0 0 37 37" fill="none" xmlns="http://www.w3.org/2000/svg">
<g clip-path="url(#clip0_64_4319)">
<path d="M33.2678 28.3975C33.2678 28.3975 36.2585 31.6424 36.2585 33.6312C36.2585 34.4244 35.9434 35.1851 35.3825 35.7459C34.8217 36.3068 34.061 36.6219 33.2678 36.6219C32.4746 36.6219 31.7139 36.3068 31.153 35.7459C30.5922 35.1851 30.2771 34.4244 30.2771 33.6312C30.2771 31.6424 33.2678 28.3975 33.2678 28.3975ZM9.34223 18.6777H15.3236C15.7202 18.6777 16.1006 18.8353 16.381 19.1157C16.6614 19.3961 16.819 19.7765 16.819 20.1731C16.819 20.5697 16.6614 20.95 16.381 21.2305C16.1006 21.5109 15.7202 21.6684 15.3236 21.6684H13.8283V24.6591H16.819C17.9255 24.6591 18.8975 25.2573 19.4059 26.1545L29.1406 20.532L34.0155 23.3582C34.7631 23.7619 34.9725 24.6591 34.5687 25.4068C34.15 26.1096 33.2678 26.3638 32.5201 25.9451L29.3799 24.1357L23.9219 33.5863C23.4134 34.4985 22.4265 35.1266 21.305 35.1266H7.84688C7.0537 35.1266 6.29301 34.8115 5.73214 34.2506C5.17128 33.6897 4.85619 32.929 4.85619 32.1359V27.6498C4.85619 26.8566 5.17128 26.0959 5.73214 25.5351C6.29301 24.9742 7.0537 24.6591 7.84688 24.6591H10.8376V21.6684H9.34223C8.94564 21.6684 8.56529 21.5109 8.28486 21.2305C8.00443 20.95 7.84688 20.5697 7.84688 20.1731C7.84688 19.7765 8.00443 19.3961 8.28486 19.1157C8.56529 18.8353 8.94564 18.6777 9.34223 18.6777ZM7.84688 27.6498V32.1359H21.305L24.3854 26.7975L19.2115 29.7882L17.8508 27.6498H7.84688ZM0.938381 23.4778L3.49542 20.9208C4.10852 20.3376 5.02068 20.3376 5.60386 20.9208C6.18705 21.5039 6.18705 22.4161 5.60386 23.0292L3.04682 25.5862C2.46363 26.1545 1.52157 26.1545 0.938381 25.5862C0.370149 25.0031 0.370149 24.061 0.938381 23.4778Z" fill="black"/>
</g>
<defs>
<clipPath id="clip0_64_4319">
<rect width="35.8883" height="35.8883" fill="white" transform="translate(0.370605 0.733521)"/>
</clipPath>
</defs>
</svg>
