<svg width="24" height="28" viewBox="0 0 24 28" fill="none" xmlns="http://www.w3.org/2000/svg">
<path d="M21.3715 3.51329V2.51329V3.51329ZM22.8071 4.95246L21.8071 4.95246V4.95246H22.8071ZM1.55493 4.95246H0.554932H1.55493ZM2.99053 3.51329V4.51329V3.51329ZM21.3715 26.7612V25.7612V26.7612ZM22.8071 25.3221H23.8071H22.8071ZM6.53039 23.2111H7.53039H6.53039ZM5.09316 21.7719L5.09316 22.7719H5.0943L5.09316 21.7719ZM2.10772 22.3325L1.39833 23.0373H1.39833L2.10772 22.3325ZM8.33142 26.7612V27.7612V26.7612ZM5.22262 25.4623L4.51479 26.1687L5.22262 25.4623ZM2.27534 9.89276C1.72306 9.89276 1.27534 10.3405 1.27534 10.8928C1.27534 11.445 1.72306 11.8928 2.27534 11.8928V9.89276ZM22.627 11.8928C23.1793 11.8928 23.627 11.445 23.627 10.8928C23.627 10.3405 23.1793 9.89276 22.627 9.89276V11.8928ZM7.14012 6.49526C7.14012 7.04755 7.58784 7.49526 8.14012 7.49526C8.69241 7.49526 9.14012 7.04755 9.14012 6.49526H7.14012ZM9.14012 1.05347C9.14012 0.501182 8.69241 0.0534668 8.14012 0.0534668C7.58784 0.0534668 7.14012 0.501182 7.14012 1.05347H9.14012ZM15.7851 6.49526C15.7851 7.04755 16.2328 7.49526 16.7851 7.49526C17.3373 7.49526 17.7851 7.04755 17.7851 6.49526H15.7851ZM17.7851 1.05347C17.7851 0.501182 17.3373 0.0534668 16.7851 0.0534668C16.2328 0.0534668 15.7851 0.501182 15.7851 1.05347H17.7851ZM8.03864 14.8124C7.48635 14.8124 7.03864 15.2601 7.03864 15.8124C7.03864 16.3647 7.48635 16.8124 8.03864 16.8124V14.8124ZM8.21874 16.8124C8.77103 16.8124 9.21874 16.3647 9.21874 15.8124C9.21874 15.2601 8.77103 14.8124 8.21874 14.8124V16.8124ZM8.03864 18.9752C7.48635 18.9752 7.03864 19.4229 7.03864 19.9752C7.03864 20.5275 7.48635 20.9752 8.03864 20.9752V18.9752ZM8.21874 20.9752C8.77103 20.9752 9.21874 20.5275 9.21874 19.9752C9.21874 19.4229 8.77103 18.9752 8.21874 18.9752V20.9752ZM12.3611 14.8124C11.8088 14.8124 11.3611 15.2601 11.3611 15.8124C11.3611 16.3647 11.8088 16.8124 12.3611 16.8124V14.8124ZM12.5412 16.8124C13.0935 16.8124 13.5412 16.3647 13.5412 15.8124C13.5412 15.2601 13.0935 14.8124 12.5412 14.8124V16.8124ZM12.3611 18.9752C11.8088 18.9752 11.3611 19.4229 11.3611 19.9752C11.3611 20.5275 11.8088 20.9752 12.3611 20.9752V18.9752ZM12.5412 20.9752C13.0935 20.9752 13.5412 20.5275 13.5412 19.9752C13.5412 19.4229 13.0935 18.9752 12.5412 18.9752V20.9752ZM16.6836 14.8124C16.1313 14.8124 15.6836 15.2601 15.6836 15.8124C15.6836 16.3647 16.1313 16.8124 16.6836 16.8124V14.8124ZM16.8637 16.8124C17.416 16.8124 17.8637 16.3647 17.8637 15.8124C17.8637 15.2601 17.416 14.8124 16.8637 14.8124V16.8124ZM16.6836 18.9752C16.1313 18.9752 15.6836 19.4229 15.6836 19.9752C15.6836 20.5275 16.1313 20.9752 16.6836 20.9752V18.9752ZM16.8637 20.9752C17.416 20.9752 17.8637 20.5275 17.8637 19.9752C17.8637 19.4229 17.416 18.9752 16.8637 18.9752V20.9752ZM21.3715 26.7612V25.7612H8.33142V26.7612V27.7612H21.3715V26.7612ZM1.55493 20.9687H2.55493V4.95246H1.55493H0.554932V20.9687H1.55493ZM2.99053 3.51329V4.51329L21.3715 4.51329V3.51329V2.51329L2.99053 2.51329L2.99053 3.51329ZM22.8071 4.95246H21.8071L21.8071 25.3221H22.8071H23.8071L23.8071 4.95246L22.8071 4.95246ZM21.3715 3.51329V4.51329C21.6097 4.51329 21.8071 4.70757 21.8071 4.95246L22.8071 4.95246H23.8071C23.8071 3.60768 22.719 2.51329 21.3715 2.51329V3.51329ZM1.55493 4.95246L2.55493 4.95246C2.55493 4.70757 2.75229 4.51329 2.99053 4.51329V3.51329L2.99053 2.51329C1.64305 2.51329 0.554932 3.60768 0.554932 4.95246H1.55493ZM5.22262 25.4623L5.93044 24.7559C4.9174 23.7408 3.56386 22.3792 2.81711 21.6276L2.10772 22.3325L1.39833 23.0373C2.14511 23.7889 3.50003 25.1519 4.51479 26.1687L5.22262 25.4623ZM21.3715 26.7612V27.7612C22.719 27.7612 23.8071 26.6668 23.8071 25.3221H22.8071H21.8071C21.8071 25.567 21.6097 25.7612 21.3715 25.7612V26.7612ZM6.53039 23.2111H5.53039L5.53039 26.787H6.53039H7.53039L7.53039 23.2111H6.53039ZM1.55493 21.7719L1.55493 22.7719L5.09316 22.7719L5.09316 21.7719L5.09316 20.7719L1.55493 20.7719L1.55493 21.7719ZM6.53039 23.2111H7.53039C7.53039 21.8652 6.44059 20.7704 5.09203 20.7719L5.09316 21.7719L5.0943 22.7719C5.33273 22.7717 5.53039 22.966 5.53039 23.2111H6.53039ZM1.55493 20.9687H0.554932C0.554932 21.7392 0.851321 22.4867 1.39833 23.0373L2.10772 22.3325L2.81711 21.6276C2.65522 21.4647 2.55493 21.2295 2.55493 20.9687H1.55493ZM8.33142 26.7612V25.7612C8.00462 25.7612 7.54104 25.6602 7.05859 25.4592C6.57695 25.2585 6.1717 24.9977 5.93044 24.7559L5.22262 25.4623L4.51479 26.1687C4.99331 26.6482 5.64513 27.0369 6.28927 27.3053C6.93261 27.5734 7.66354 27.7612 8.33142 27.7612V26.7612ZM2.27534 10.8928V11.8928H22.627V10.8928V9.89276H2.27534V10.8928ZM8.14012 6.49526H9.14012V1.05347H8.14012H7.14012V6.49526H8.14012ZM16.7851 6.49526H17.7851V1.05347H16.7851H15.7851V6.49526H16.7851ZM8.03864 15.8124V16.8124H8.21874V15.8124V14.8124H8.03864V15.8124ZM8.03864 19.9752V20.9752H8.21874V19.9752V18.9752H8.03864V19.9752ZM12.3611 15.8124V16.8124H12.5412V15.8124V14.8124H12.3611V15.8124ZM12.3611 19.9752V20.9752H12.5412V19.9752V18.9752H12.3611V19.9752ZM16.6836 15.8124V16.8124H16.8637V15.8124V14.8124H16.6836V15.8124ZM16.6836 19.9752V20.9752H16.8637V19.9752V18.9752H16.6836V19.9752Z" fill="white"/>
</svg>
