<svg width="31" height="28" viewBox="0 0 31 28" fill="none" xmlns="http://www.w3.org/2000/svg">
<path d="M6.70966 9.15631C3.70289 10.636 1.63452 13.7246 1.63452 17.2952C1.63452 19.3314 2.30721 21.2109 3.44301 22.7247L1.94187 26.3653C1.87012 26.6043 2.08094 26.8325 2.32418 26.7792L6.40569 25.2773C7.69116 25.9713 9.16319 26.3653 10.7275 26.3653C12.7935 26.3653 14.6986 25.678 16.2256 24.5201M29.9707 12.6547C29.9707 15.2591 29.1103 17.6631 27.6575 19.5993L29.5776 24.2558C29.6694 24.5616 29.3997 24.8535 29.0886 24.7852L23.8681 22.8643C22.2239 23.7519 20.341 24.2558 18.3402 24.2558C11.9168 24.2558 6.70966 19.0618 6.70966 12.6547C6.70966 6.2475 11.9168 1.05347 18.3402 1.05347C24.7636 1.05347 29.9707 6.2475 29.9707 12.6547Z" stroke="white" stroke-width="2" stroke-linecap="round" stroke-linejoin="round"/>
</svg>
