<svg width="20" height="25" viewBox="0 0 20 25" fill="none" xmlns="http://www.w3.org/2000/svg">
<path d="M7.10607 3.78769C7.10607 4.12096 7.37624 4.39113 7.70952 4.39113C8.04279 4.39113 8.31296 4.12096 8.31296 3.78769H7.10607ZM11.4751 3.78769C11.4751 4.12096 11.7452 4.39113 12.0785 4.39113C12.4118 4.39113 12.6819 4.12096 12.6819 3.78769H11.4751ZM16.9359 14.6904L16.4633 15.0657H16.4633L16.9359 14.6904ZM18.9852 18.5534L19.5822 18.4656L18.9852 18.5534ZM9.99572 2.83067C9.66244 2.83067 9.39227 3.10084 9.39227 3.43411C9.39227 3.76739 9.66244 4.03756 9.99572 4.03756V2.83067ZM16.7082 9.49228L16.1074 9.54882L16.7082 9.49228ZM3.06414 14.6904L3.53666 15.0657H3.53666L3.06414 14.6904ZM1.01485 18.5534L1.61187 18.6412L1.01485 18.5534ZM10.0043 4.03756C10.3376 4.03756 10.6077 3.76739 10.6077 3.43411C10.6077 3.10084 10.3376 2.83067 10.0043 2.83067V4.03756ZM3.29183 9.49228L2.69104 9.43575L3.29183 9.49228ZM13.3895 20.1427H12.786V20.4926H13.3895H13.9929V20.1427H13.3895ZM6.52392 20.4926H7.12737V20.1427H6.52392H5.92047V20.4926H6.52392ZM9.9567 24V23.3966C8.40627 23.3966 7.12737 22.1087 7.12737 20.4926H6.52392H5.92047C5.92047 22.7507 7.71539 24.6034 9.9567 24.6034V24ZM13.3895 20.4926H12.786C12.786 22.1087 11.5071 23.3966 9.9567 23.3966V24V24.6034C12.198 24.6034 13.9929 22.7507 13.9929 20.4926H13.3895ZM7.70952 3.78769H8.31296C8.31296 3.00068 8.52756 2.45121 8.81252 2.10999C9.09208 1.77523 9.46792 1.60345 9.89401 1.60345V1V0.396552C9.11363 0.396552 8.39723 0.724408 7.88616 1.33639C7.38049 1.94191 7.10607 2.78629 7.10607 3.78769H7.70952ZM9.89401 1V1.60345C10.3201 1.60345 10.6959 1.77523 10.9755 2.10999C11.2605 2.45121 11.4751 3.00068 11.4751 3.78769H12.0785H12.6819C12.6819 2.78629 12.4075 1.94191 11.9019 1.33639C11.3908 0.724408 10.6744 0.396552 9.89401 0.396552V1ZM16.9359 14.6904L16.4633 15.0657C16.5954 15.232 16.7983 15.4259 16.9513 15.5832C17.1236 15.7604 17.3077 15.9624 17.4885 16.2168C17.8448 16.718 18.2143 17.4591 18.3881 18.6412L18.9852 18.5534L19.5822 18.4656C19.3808 17.096 18.9397 16.1751 18.4722 15.5175C18.2411 15.1925 18.01 14.9408 17.8166 14.7419C17.6038 14.5231 17.4904 14.4183 17.4084 14.315L16.9359 14.6904ZM9.99572 3.43411V4.03756C9.99699 4.03756 9.99828 4.03756 9.99959 4.03756L10 3.43412L10.0004 2.83067C9.99887 2.83067 9.9973 2.83067 9.99572 2.83067V3.43411ZM10 3.43412L9.99959 4.03756C13.2326 4.03976 15.8494 6.80788 16.1074 9.54882L16.7082 9.49228L17.309 9.43575C16.997 6.12094 13.9008 2.83332 10.0004 2.83067L10 3.43412ZM16.7082 9.49228L16.1074 9.54882C16.2454 11.0153 16.1783 12.1161 16.1363 12.958C16.1157 13.3698 16.0986 13.7567 16.1252 14.084C16.1519 14.4115 16.2274 14.7686 16.4633 15.0657L16.9359 14.6904L17.4084 14.315C17.3911 14.2933 17.3471 14.2198 17.3281 13.9862C17.3091 13.7524 17.3202 13.4476 17.3417 13.0182C17.3836 12.1777 17.456 10.9983 17.309 9.43575L16.7082 9.49228ZM3.06414 14.6904L2.59161 14.315C2.50963 14.4183 2.39617 14.5231 2.18343 14.7419C1.98996 14.9408 1.75887 15.1925 1.52781 15.5175C1.06031 16.1751 0.619232 17.096 0.417819 18.4656L1.01485 18.5534L1.61187 18.6412C1.7857 17.4591 2.15519 16.718 2.51148 16.2168C2.69232 15.9624 2.87643 15.7604 3.04872 15.5832C3.20173 15.4259 3.40456 15.232 3.53666 15.0657L3.06414 14.6904ZM10.0043 3.43411V2.83067C10.0027 2.83067 10.0011 2.83067 9.99959 2.83067L10 3.43412L10.0004 4.03756C10.0017 4.03756 10.003 4.03756 10.0043 4.03756V3.43411ZM10 3.43412L9.99959 2.83067C6.09919 2.83332 3.00298 6.12094 2.69104 9.43575L3.29183 9.49228L3.89263 9.54882C4.15056 6.80788 6.76741 4.03976 10.0004 4.03756L10 3.43412ZM3.29183 9.49228L2.69104 9.43575C2.54399 10.9983 2.61635 12.1777 2.65834 13.0182C2.67979 13.4476 2.69087 13.7524 2.67186 13.9862C2.65285 14.2198 2.6089 14.2933 2.59161 14.315L3.06414 14.6904L3.53666 15.0657C3.77264 14.7686 3.84814 14.4115 3.87478 14.084C3.9014 13.7567 3.8843 13.3698 3.86373 12.958C3.82167 12.1161 3.75462 11.0153 3.89263 9.54882L3.29183 9.49228ZM2.46701 20.1427V20.7462H17.533V20.1427V19.5393H2.46701V20.1427ZM1.01485 18.5534L0.417819 18.4656C0.228756 19.7512 1.29009 20.7462 2.46701 20.7462V20.1427V19.5393C1.92041 19.5393 1.54485 19.097 1.61187 18.6412L1.01485 18.5534ZM18.9852 18.5534L18.3881 18.6412C18.4552 19.097 18.0796 19.5393 17.533 19.5393V20.1427V20.7462C18.7099 20.7462 19.7712 19.7512 19.5822 18.4656L18.9852 18.5534Z" fill="black"/>
</svg>
