<svg width="26" height="25" viewBox="0 0 26 25" fill="none" xmlns="http://www.w3.org/2000/svg">
<path d="M10.5342 1V0.396552C10.201 0.396552 9.9308 0.666725 9.9308 1L10.5342 1ZM15.4658 1H16.0692C16.0692 0.666725 15.799 0.396552 15.4658 0.396552V1ZM15.4658 24V24.6034C15.799 24.6034 16.0692 24.3333 16.0692 24H15.4658ZM10.5342 24H9.9308C9.9308 24.3333 10.201 24.6034 10.5342 24.6034V24ZM25 10.137H25.6034C25.6034 9.80371 25.3333 9.53354 25 9.53354V10.137ZM25 14.863V15.4665C25.16 15.4665 25.3135 15.4029 25.4267 15.2897C25.5399 15.1765 25.6034 15.0231 25.6034 14.863H25ZM1 14.863H0.396552C0.396552 15.1963 0.666725 15.4665 1 15.4665L1 14.863ZM1 10.137L1 9.53354C0.839956 9.53354 0.686466 9.59711 0.573298 9.71028C0.460129 9.82345 0.396552 9.97694 0.396552 10.137H1ZM19.7417 2.69737L20.1593 2.26169C19.9268 2.03893 19.5604 2.03787 19.3267 2.2593L19.7417 2.69737ZM23.2288 6.03918L23.6489 6.47245C23.7665 6.35837 23.8328 6.20134 23.8323 6.03744C23.8318 5.87355 23.7647 5.71689 23.6464 5.60349L23.2288 6.03918ZM6.25827 22.3026L5.84074 22.7383C6.07329 22.9612 6.43987 22.9621 6.67356 22.7405L6.25827 22.3026ZM2.77117 18.9608L2.35141 18.5273C2.23361 18.6413 2.1673 18.7984 2.16772 18.9624C2.16814 19.1263 2.23526 19.2831 2.35364 19.3965L2.77117 18.9608ZM23.2288 18.9608L23.6464 19.3965C23.7637 19.284 23.8307 19.129 23.8323 18.9665C23.8338 18.8039 23.7697 18.6477 23.6544 18.533L23.2288 18.9608ZM19.7417 22.3026L19.3206 22.7348C19.5536 22.9618 19.9244 22.9633 20.1593 22.7383L19.7417 22.3026ZM2.77117 6.03917L2.35364 5.60349C2.23488 5.71731 2.16772 5.87468 2.16772 6.03917C2.16772 6.20367 2.23488 6.36104 2.35364 6.47486L2.77117 6.03917ZM6.25827 2.69737L6.6758 2.26169C6.44239 2.038 6.07416 2.038 5.84074 2.26169L6.25827 2.69737ZM20.9537 14.863V14.2596H20.5265L20.3846 14.6625L20.9537 14.863ZM20.3766 16.1233L19.8528 15.8237L19.6232 16.225L19.951 16.5511L20.3766 16.1233ZM16.7808 19.4177L17.2019 18.9855L16.9024 18.6937L16.524 18.8716L16.7808 19.4177ZM15.4658 19.9062L15.3036 19.325L14.8623 19.4481V19.9062H15.4658ZM10.5342 19.8073H11.1377V19.3682L10.72 19.2331L10.5342 19.8073ZM9.38356 19.3382L9.65229 18.7979L9.27445 18.61L8.96827 18.9004L9.38356 19.3382ZM5.8645 15.9658L6.28426 16.3993L6.61311 16.0809L6.39513 15.6784L5.8645 15.9658ZM5.37503 14.863L5.94421 14.6625L5.80228 14.2596L5.37503 14.2596V14.863ZM5.27175 10.137L5.27175 10.7404H5.71912L5.84915 10.3124L5.27175 10.137ZM5.76531 8.90856L6.30369 9.18112L6.50564 8.78223L6.18284 8.47287L5.76531 8.90856ZM9.14929 5.46793L8.73176 5.90361L9.04854 6.20719L9.43501 5.99945L9.14929 5.46793ZM10.5342 4.87767L10.72 5.45183L11.1377 5.31671V4.87767H10.5342ZM15.4658 4.77869H14.8623V5.23684L15.3036 5.35994L15.4658 4.77869ZM16.9452 5.34675L16.6765 5.88706L17.0541 6.07486L17.3602 5.78482L16.9452 5.34675ZM20.4643 8.71918L20.0442 8.2859L19.7158 8.6043L19.9336 9.00654L20.4643 8.71918ZM21.057 10.137L20.4796 10.3124L20.6096 10.7404H21.057V10.137ZM10.5342 1V1.60345H15.4658V1V0.396552H10.5342V1ZM15.4658 24V23.3966H10.5342V24V24.6034H15.4658V24ZM25 10.137H24.3966V14.863H25H25.6034V10.137H25ZM1 14.863H1.60345V10.137H1H0.396552V14.863H1ZM19.7417 2.69737L19.3242 3.13305L22.8113 6.47486L23.2288 6.03918L23.6464 5.60349L20.1593 2.26169L19.7417 2.69737ZM6.25827 22.3026L6.6758 21.8669L3.1887 18.5251L2.77117 18.9608L2.35364 19.3965L5.84074 22.7383L6.25827 22.3026ZM23.2288 18.9608L22.8113 18.5251L19.3242 21.8669L19.7417 22.3026L20.1593 22.7383L23.6464 19.3965L23.2288 18.9608ZM2.77117 6.03917L3.1887 6.47486L6.6758 3.13305L6.25827 2.69737L5.84074 2.26169L2.35364 5.60349L2.77117 6.03917ZM20.9537 14.863L20.3846 14.6625C20.2423 15.0663 20.0639 15.4545 19.8528 15.8237L20.3766 16.1233L20.9004 16.4229C21.1471 15.9916 21.3561 15.537 21.5229 15.0635L20.9537 14.863ZM16.7808 19.4177L16.524 18.8716C16.1349 19.0547 15.7269 19.2069 15.3036 19.325L15.4658 19.9062L15.6279 20.4875C16.1165 20.3512 16.5878 20.1754 17.0376 19.9638L16.7808 19.4177ZM10.5342 19.8073L10.72 19.2331C10.3505 19.1136 9.99377 18.9677 9.65229 18.7979L9.38356 19.3382L9.11483 19.8785C9.50966 20.0749 9.92184 20.2434 10.3485 20.3814L10.5342 19.8073ZM5.8645 15.9658L6.39513 15.6784C6.21897 15.3531 6.06789 15.0137 5.94421 14.6625L5.37503 14.863L4.80586 15.0635C4.95091 15.4753 5.1279 15.8728 5.33387 16.2531L5.8645 15.9658ZM5.27175 10.137L5.84915 10.3124C5.96806 9.92087 6.12059 9.54278 6.30369 9.18112L5.76531 8.90856L5.22692 8.63599C5.0127 9.05912 4.83389 9.50219 4.69435 9.9616L5.27175 10.137ZM9.14929 5.46793L9.43501 5.99945C9.84157 5.7809 10.2713 5.59695 10.72 5.45183L10.5342 4.87767L10.3485 4.30351C9.83045 4.47109 9.33378 4.68365 8.86357 4.93641L9.14929 5.46793ZM15.4658 4.77869L15.3036 5.35994C15.7826 5.49356 16.2419 5.67089 16.6765 5.88706L16.9452 5.34675L17.2139 4.80644C16.7114 4.5565 16.1808 4.35166 15.6279 4.19743L15.4658 4.77869ZM20.4643 8.71918L19.9336 9.00654C20.1578 9.42056 20.3414 9.85742 20.4796 10.3124L21.057 10.137L21.6344 9.9616C21.4723 9.42771 21.2571 8.91591 20.9949 8.43182L20.4643 8.71918ZM10.5342 4.87767H11.1377V1H10.5342H9.9308V4.87767H10.5342ZM15.4658 1H14.8623V4.77869H15.4658H16.0692V1H15.4658ZM6.25827 2.69737L5.84074 3.13305L8.73176 5.90361L9.14929 5.46793L9.56682 5.03225L6.6758 2.26169L6.25827 2.69737ZM5.76531 8.90856L6.18284 8.47287L3.1887 5.60349L2.77117 6.03917L2.35364 6.47486L5.34778 9.34424L5.76531 8.90856ZM16.9452 5.34675L17.3602 5.78482L20.1568 3.13544L19.7417 2.69737L19.3267 2.2593L16.5302 4.90867L16.9452 5.34675ZM23.2288 6.03918L22.8088 5.6059L20.0442 8.2859L20.4643 8.71918L20.8843 9.15246L23.6489 6.47245L23.2288 6.03918ZM21.057 10.137V10.7404L25 10.7404V10.137V9.53354H21.057V10.137ZM25 14.863V14.2596L20.9537 14.2596V14.863V15.4665L25 15.4665V14.863ZM20.3766 16.1233L19.951 16.5511L22.8032 19.3886L23.2288 18.9608L23.6544 18.533L20.8022 15.6955L20.3766 16.1233ZM19.7417 22.3026L20.1629 21.8704L17.2019 18.9855L16.7808 19.4177L16.3597 19.8499L19.3206 22.7348L19.7417 22.3026ZM15.4658 19.9062H14.8623V24H15.4658H16.0692V19.9062H15.4658ZM10.5342 24H11.1377V19.8073H10.5342H9.9308V24H10.5342ZM9.38356 19.3382L8.96827 18.9004L5.84298 21.8648L6.25827 22.3026L6.67356 22.7405L9.79885 19.776L9.38356 19.3382ZM2.77117 18.9608L3.19093 19.3944L6.28426 16.3993L5.8645 15.9658L5.44474 15.5322L2.35141 18.5273L2.77117 18.9608ZM5.37503 14.863V14.2596L1 14.2596L1 14.863L1 15.4665L5.37503 15.4665V14.863ZM1 10.137L1 10.7404L5.27175 10.7404L5.27175 10.137V9.53354H1L1 10.137ZM16.406 11.8052L15.8153 11.9285C16.1217 13.3959 15.1393 14.817 13.5605 15.0781L13.659 15.6735L13.7574 16.2689C15.9741 15.9022 17.4515 13.8595 16.9967 11.6818L16.406 11.8052ZM13.659 15.6735L13.5605 15.0781C11.9645 15.3421 10.4353 14.3075 10.1244 12.8184L9.53369 12.9418L8.94299 13.0651C9.3932 15.2212 11.5579 16.6326 13.7574 16.2689L13.659 15.6735ZM9.53369 12.9418L10.1244 12.8184C9.81798 11.351 10.8005 9.92989 12.3792 9.66878L12.2808 9.07342L12.1823 8.47806C9.96558 8.84468 8.48825 10.8874 8.94299 13.0651L9.53369 12.9418ZM12.2808 9.07342L12.3792 9.66878C13.9752 9.40482 15.5044 10.4394 15.8153 11.9285L16.406 11.8052L16.9967 11.6818C16.5465 9.52574 14.3818 8.11428 12.1823 8.47806L12.2808 9.07342Z" fill="black"/>
</svg>
