<svg width="31" height="31" viewBox="0 0 31 31" fill="none" xmlns="http://www.w3.org/2000/svg">
<path d="M4.03519 14.6182L4.03519 13.6182L4.03519 14.6182ZM2.70469 10.7934L3.33396 11.5706H3.33396L2.70469 10.7934ZM28.2585 10.7934L27.6292 11.5706L28.2585 10.7934ZM26.928 14.6182V15.6182V14.6182ZM16.8121 1.52561L17.4413 0.748418V0.748418L16.8121 1.52561ZM14.1511 1.52561L13.5218 0.748418V0.748418L14.1511 1.52561ZM15.4816 20.9887V21.9887V20.9887ZM19.2155 24.7114H20.2155H19.2155ZM11.7477 24.7114H10.7477H11.7477ZM10.7477 29.2378C10.7477 29.7901 11.1954 30.2378 11.7477 30.2378C12.3 30.2378 12.7477 29.7901 12.7477 29.2378H10.7477ZM18.2155 29.2378C18.2155 29.7901 18.6632 30.2378 19.2155 30.2378C19.7677 30.2378 20.2155 29.7901 20.2155 29.2378H18.2155ZM25.9047 14.3932H24.9047V27.0894H25.9047H26.9047V14.3932H25.9047ZM23.7776 29.2378V28.2378H7.61102V29.2378V30.2378H23.7776V29.2378ZM5.48385 27.0893H6.48385V14.3932H5.48385H4.48385V27.0893H5.48385ZM7.61102 29.2378V28.2378C6.99787 28.2378 6.48385 27.733 6.48385 27.0893H5.48385H4.48385C4.48385 28.8188 5.87456 30.2378 7.61102 30.2378V29.2378ZM25.9047 27.0894H24.9047C24.9047 27.733 24.3907 28.2378 23.7776 28.2378V29.2378V30.2378C25.514 30.2378 26.9047 28.8188 26.9047 27.0894H25.9047ZM16.8121 1.52561L16.1828 2.3028L27.6292 11.5706L28.2585 10.7934L28.8877 10.0162L17.4413 0.748418L16.8121 1.52561ZM26.928 14.6182L26.928 13.6182L4.03519 13.6182L4.03519 14.6182V15.6182L26.928 15.6182V14.6182ZM2.70469 10.7934L3.33396 11.5706L14.7803 2.3028L14.1511 1.52561L13.5218 0.748418L2.07543 10.0162L2.70469 10.7934ZM4.03519 14.6182L4.03519 13.6182C2.98992 13.6182 2.48107 12.2611 3.33396 11.5706L2.70469 10.7934L2.07543 10.0162C-0.207804 11.8648 1.06105 15.6182 4.03519 15.6182V14.6182ZM28.2585 10.7934L27.6292 11.5706C28.4821 12.2611 27.9732 13.6182 26.928 13.6182L26.928 14.6182V15.6182C29.9021 15.6182 31.1709 11.8648 28.8877 10.0162L28.2585 10.7934ZM16.8121 1.52561L17.4413 0.748418C16.2969 -0.178184 14.6662 -0.178184 13.5218 0.748418L14.1511 1.52561L14.7803 2.3028C15.1909 1.97036 15.7722 1.97036 16.1828 2.3028L16.8121 1.52561ZM15.4816 20.9887V21.9887C16.9943 21.9887 18.2155 23.2106 18.2155 24.7114H19.2155H20.2155C20.2155 22.1003 18.0932 19.9887 15.4816 19.9887V20.9887ZM11.7477 24.7114L12.7477 24.7114C12.7477 23.2106 13.9689 21.9887 15.4816 21.9887V20.9887V19.9887C12.87 19.9887 10.7477 22.1003 10.7477 24.7114H11.7477ZM11.7477 29.2378H12.7477V24.7114H11.7477H10.7477V29.2378H11.7477ZM19.2155 24.7114H18.2155L18.2155 29.2378H19.2155H20.2155L20.2155 24.7114H19.2155Z" fill="black"/>
</svg>
